<?xml version="1.0" encoding="UTF-8"?>
<svg xmlns="http://www.w3.org/2000/svg" xmlns:xlink="http://www.w3.org/1999/xlink" width="300" height="300" viewBox="800 380 200 1100">
<path fill-rule="nonzero" fill="rgb(83%, 32%, 0%)" fill-opacity="1" d="M 910.546875 380.769531 L 910.5 380.769531 C 892.722656 381.75 877.464844 384.320312 866.84375 389.859375 C 848.921875 399.199219 844.460938 417.03125 853.316406 434.019531 C 855.605469 438.410156 858.792969 442.761719 862.890625 446.878906 C 865.34375 449.359375 868.117188 451.738281 871.164062 454.050781 C 871.296875 454.148438 871.453125 454.210938 871.617188 454.21875 L 871.613281 454.21875 C 1097.308594 487.148438 1273.730469 678.101562 1280.808594 913.988281 C 1287.25 1128.5 1151.679688 1314.304688 959.113281 1381.121094 L 959.109375 1381.121094 C 959.070312 1381.132812 959.03125 1381.144531 958.992188 1381.164062 L 958.988281 1381.164062 C 957.796875 1381.578125 956.632812 1381.972656 955.453125 1382.375 C 955.53125 1381.101562 955.601562 1379.835938 955.671875 1378.5625 L 955.675781 1378.5625 L 955.675781 1378.554688 C 958.941406 1321.097656 957.054688 1265.199219 936.808594 1214.289062 C 934.753906 1209.121094 932.511719 1204.019531 930.109375 1198.949219 C 913.199219 1163.328125 888.417969 1130.359375 866.238281 1100.851562 L 866.097656 1100.671875 C 848.382812 1077.101562 832.28125 1055.679688 823.421875 1037.011719 C 801.703125 991.261719 823.386719 962.160156 840.449219 946.949219 C 845.03125 942.871094 849.296875 939.769531 853.316406 937.390625 C 854.769531 936.53125 856.191406 935.769531 857.589844 935.089844 L 857.59375 935.089844 C 858.613281 935.730469 859.628906 936.359375 860.648438 936.960938 L 860.644531 936.960938 C 860.636719 936.96875 860.625 936.96875 860.617188 936.980469 C 860.242188 937.140625 860.039062 937.550781 860.125 937.949219 C 860.210938 938.351562 860.5625 938.628906 860.96875 938.628906 C 861.09375 938.628906 861.214844 938.609375 861.324219 938.558594 C 861.734375 938.371094 862.132812 938.199219 862.53125 938.03125 L 862.535156 938.03125 C 867.253906 940.609375 872.214844 942.449219 878.203125 942.460938 C 882.792969 942.460938 888.050781 941.390625 894.308594 938.609375 C 913.515625 930.078125 940.996094 906.148438 945.027344 895.320312 C 946.792969 890.578125 943.753906 888.78125 937.617188 885.589844 L 937.402344 885.480469 L 937.179688 885.371094 C 932.46875 882.921875 926.644531 879.808594 923.640625 873.589844 C 920.824219 867.75 920.582031 859.320312 920.347656 850.660156 L 920.335938 850.230469 L 920.335938 850.210938 C 920.050781 839.53125 919.71875 828.28125 915.390625 819.320312 C 914.929688 818.359375 914.421875 817.429688 913.863281 816.53125 C 906.617188 804.851562 890.699219 797.910156 877.394531 792.171875 L 877.261719 792.109375 L 877.125 792.050781 C 871.898438 789.789062 867.070312 787.699219 863.570312 785.570312 C 850.503906 777.648438 855.472656 768.988281 860.730469 759.921875 L 860.839844 759.71875 L 860.953125 759.53125 L 860.957031 759.53125 L 860.960938 759.519531 C 865.847656 751.078125 871.5625 741.050781 877.386719 730.820312 C 877.539062 730.558594 877.535156 730.230469 877.382812 729.960938 C 877.226562 729.691406 876.945312 729.53125 876.636719 729.53125 C 876.054688 729.53125 875.503906 729.53125 874.914062 729.519531 C 855.664062 729.488281 835.894531 730.488281 808.933594 742.808594 C 779.21875 756.390625 740.6875 783.761719 695.273438 833.75 C 649.875 883.710938 597.796875 956.070312 588.910156 1063.089844 C 580.402344 1165.589844 611.472656 1299.953125 644.367188 1436.023438 C 599.210938 1437.644531 581.558594 1469.289062 583.839844 1474.808594 C 583.84375 1474.820312 583.851562 1474.832031 583.855469 1474.84375 C 584.472656 1476.226562 588.792969 1479.445312 604.011719 1482.089844 C 604.289062 1482.136719 604.597656 1482.191406 604.878906 1482.234375 L 604.878906 1482.238281 L 604.882812 1482.238281 C 630.070312 1486.460938 676.953125 1488.242188 729.636719 1488.328125 C 797.003906 1488.4375 873.902344 1485.769531 927.136719 1481.878906 C 1022.671875 1474.894531 1020.210938 1463.226562 1028.078125 1456.058594 C 1031.921875 1452.5625 1035.878906 1449.058594 1038.808594 1446.476562 L 1047.960938 1439.289062 C 1048 1439.242188 1048.03125 1439.191406 1048.058594 1439.140625 C 1234.570312 1348.050781 1363.390625 1156.859375 1364.25 935.25 C 1365.320312 661.03125 1170.128906 431.851562 910.722656 380.78125 C 910.667969 380.769531 910.613281 380.769531 910.554688 380.769531 Z M 910.546875 380.769531 "/>
</svg>
